<svg xmlns="http://www.w3.org/2000/svg" xmlns:xlink="http://www.w3.org/1999/xlink" width="500" zoomAndPan="magnify" viewBox="0 0 375 374.999991" height="500" preserveAspectRatio="xMidYMid meet" version="1.0"><defs><clipPath id="6702cbdd6e"><path d="M 0 30.46875 L 375 30.46875 L 375 92 L 0 92 Z M 0 30.46875 " clip-rule="nonzero"/></clipPath><clipPath id="a2a9022f55"><path d="M 0 283 L 375 283 L 375 344.71875 L 0 344.71875 Z M 0 283 " clip-rule="nonzero"/></clipPath></defs><g clip-path="url(#6702cbdd6e)"><path fill="#191e2e" d="M 344.476562 91.605469 L 30.523438 91.605469 C 13.664062 91.605469 0 77.933594 0 61.066406 C 0 44.195312 13.664062 30.523438 30.523438 30.523438 L 344.476562 30.523438 C 361.335938 30.523438 375 44.195312 375 61.066406 C 375 77.933594 361.335938 91.605469 344.476562 91.605469 Z M 344.476562 91.605469 " fill-opacity="1" fill-rule="nonzero"/></g><path fill="#191e2e" d="M 344.476562 218.136719 L 30.523438 218.136719 C 13.664062 218.136719 0 204.460938 0 187.59375 C 0 170.726562 13.664062 157.050781 30.523438 157.050781 L 344.476562 157.050781 C 361.335938 157.050781 375 170.726562 375 187.59375 C 375 204.460938 361.335938 218.136719 344.476562 218.136719 Z M 344.476562 218.136719 " fill-opacity="1" fill-rule="nonzero"/><g clip-path="url(#a2a9022f55)"><path fill="#191e2e" d="M 344.476562 344.664062 L 30.523438 344.664062 C 13.664062 344.664062 0 330.992188 0 314.121094 C 0 297.253906 13.664062 283.582031 30.523438 283.582031 L 344.476562 283.582031 C 361.335938 283.582031 375 297.253906 375 314.121094 C 375 330.992188 361.335938 344.664062 344.476562 344.664062 Z M 344.476562 344.664062 " fill-opacity="1" fill-rule="nonzero"/></g></svg>