<svg xmlns="http://www.w3.org/2000/svg" xmlns:xlink="http://www.w3.org/1999/xlink" width="500" zoomAndPan="magnify" viewBox="0 0 375 374.999991" height="500" preserveAspectRatio="xMidYMid meet" version="1.0"><defs><clipPath id="1559ed370a"><path d="M 0 15 L 375 15 L 375 360.515625 L 0 360.515625 Z M 0 15 " clip-rule="nonzero"/></clipPath></defs><g clip-path="url(#1559ed370a)"><path fill="#ebebeb" d="M 367.09375 107.964844 L 341.320312 107.964844 L 341.320312 104.636719 C 341.320312 102.554688 340.488281 100.476562 338.824219 99.226562 C 332.171875 93.402344 323.027344 89.242188 311.800781 86.328125 L 326.351562 48.882812 C 328.847656 42.640625 328.429688 35.984375 325.9375 30.160156 C 323.441406 24.335938 318.453125 19.757812 312.21875 17.261719 C 305.980469 14.765625 299.332031 15.183594 293.511719 17.679688 C 287.273438 20.175781 282.703125 25.167969 280.621094 31.410156 L 259.835938 84.664062 C 233.230469 87.160156 203.296875 95.898438 187.5 110.042969 C 170.871094 95.480469 139.277344 87.160156 115.164062 84.664062 C 98.535156 83 57.792969 80.503906 36.589844 99.644531 C 34.929688 100.476562 33.679688 102.554688 33.679688 104.636719 L 33.679688 107.546875 L 7.90625 107.546875 C 3.75 107.546875 0.421875 110.875 0.421875 115.039062 L 0.421875 340.128906 C 0.421875 342.625 1.671875 344.707031 3.75 346.371094 C 5.828125 347.617188 8.320312 348.035156 10.402344 347.203125 C 37.839844 335.96875 86.476562 327.230469 118.90625 328.0625 C 135.535156 328.480469 150.085938 335.550781 165.050781 350.945312 C 171.285156 357.1875 178.769531 360.515625 187.5 360.515625 C 196.230469 360.515625 203.714844 357.1875 209.949219 350.945312 C 224.914062 335.96875 239.464844 328.480469 256.09375 328.0625 C 288.523438 327.230469 337.160156 335.96875 364.597656 347.203125 C 366.679688 348.035156 369.589844 348.035156 371.25 346.371094 C 373.328125 345.121094 374.578125 342.625 374.578125 340.128906 L 374.578125 115.039062 C 374.578125 110.875 371.25 107.964844 367.09375 107.964844 Z M 245.703125 160.386719 L 264.410156 167.460938 L 262.332031 173.285156 L 244.871094 190.761719 L 243.625 166.214844 Z M 269.8125 154.148438 L 251.105469 147.074219 L 282.285156 67.191406 L 300.992188 74.261719 Z M 293.925781 36.402344 C 294.757812 33.90625 296.835938 31.824219 299.332031 30.992188 C 301.824219 29.742188 304.320312 29.742188 306.8125 30.992188 C 309.308594 31.824219 311.386719 33.90625 312.21875 36.402344 C 313.464844 38.898438 313.464844 41.394531 312.21875 43.890625 L 305.566406 60.53125 L 286.859375 53.460938 Z M 253.601562 100.058594 L 234.894531 148.324219 L 229.488281 162.050781 C 229.074219 162.882812 229.074219 164.132812 229.074219 164.964844 L 231.152344 207.820312 C 231.152344 210.730469 233.230469 213.230469 235.722656 214.476562 C 236.554688 214.894531 237.386719 214.894531 238.21875 214.894531 C 240.296875 214.894531 241.960938 214.0625 243.207031 212.8125 L 273.554688 182.855469 C 274.386719 182.023438 274.800781 181.191406 275.21875 180.359375 L 280.621094 166.628906 L 306.398438 100.890625 C 314.710938 102.554688 321.78125 105.46875 326.769531 108.796875 L 326.769531 287.703125 C 304.320312 277.300781 273.972656 278.96875 260.253906 280.632812 C 239.050781 282.710938 212.445312 288.953125 194.984375 300.1875 L 194.984375 123.359375 C 203.714844 112.957031 227.410156 103.804688 253.601562 100.058594 Z M 48.230469 108.378906 C 61.117188 99.644531 85.230469 95.898438 113.085938 98.8125 C 142.601562 102.140625 169.625 112.125 179.601562 122.941406 L 179.601562 300.1875 C 162.140625 288.953125 135.535156 282.296875 114.332031 280.214844 C 100.613281 278.550781 69.847656 276.886719 47.816406 287.289062 L 47.816406 108.378906 Z M 360.027344 329.726562 C 330.09375 319.324219 286.859375 312.253906 255.679688 313.085938 C 235.722656 313.5 217.015625 322.238281 199.554688 340.128906 C 196.230469 343.457031 192.074219 345.121094 187.5 345.121094 C 182.925781 345.121094 178.769531 343.457031 175.445312 340.128906 C 157.984375 322.652344 139.691406 313.5 119.320312 313.085938 C 88.140625 312.253906 44.90625 319.324219 14.972656 329.726562 L 14.972656 122.527344 L 33.679688 122.527344 L 33.679688 300.601562 C 33.679688 303.515625 35.34375 306.011719 37.839844 307.257812 C 40.332031 308.507812 43.660156 308.089844 45.738281 306.011719 C 57.792969 295.609375 82.738281 291.449219 113.085938 294.777344 C 143.847656 298.105469 172.535156 308.921875 181.265625 320.574219 C 181.265625 320.574219 181.679688 320.988281 181.679688 320.988281 C 181.679688 320.988281 182.09375 321.40625 182.09375 321.40625 C 182.09375 321.40625 182.511719 321.820312 182.925781 321.820312 C 182.925781 321.820312 183.34375 322.238281 183.34375 322.238281 C 183.34375 322.238281 183.757812 322.238281 183.757812 322.652344 C 183.757812 322.652344 183.757812 322.652344 184.175781 322.652344 C 184.175781 322.652344 184.589844 322.652344 184.589844 322.652344 C 184.589844 322.652344 184.589844 322.652344 185.003906 322.652344 C 185.003906 322.652344 185.421875 322.652344 185.421875 322.652344 C 185.421875 322.652344 185.421875 322.652344 185.835938 322.652344 C 186.253906 322.652344 186.253906 322.652344 186.667969 322.652344 C 187.085938 322.652344 187.085938 322.652344 187.5 322.652344 C 187.5 322.652344 187.5 322.652344 187.914062 322.652344 C 187.914062 322.652344 188.332031 322.652344 188.332031 322.652344 C 188.332031 322.652344 188.332031 322.652344 188.746094 322.652344 C 188.746094 322.652344 189.164062 322.652344 189.164062 322.652344 C 189.164062 322.652344 189.164062 322.652344 189.578125 322.652344 C 189.578125 322.652344 189.996094 322.652344 189.996094 322.238281 C 189.996094 322.238281 190.410156 321.820312 190.410156 321.820312 C 190.824219 321.820312 190.824219 321.40625 191.242188 321.40625 C 191.242188 321.40625 191.65625 320.988281 191.65625 320.988281 C 191.65625 320.988281 192.074219 320.574219 192.074219 320.574219 C 200.804688 308.921875 229.488281 298.105469 260.253906 294.777344 C 290.183594 291.449219 315.960938 296.027344 327.601562 306.011719 C 329.679688 308.089844 333.003906 308.507812 335.5 307.257812 C 337.992188 306.011719 339.65625 303.515625 339.65625 300.601562 L 339.65625 122.527344 L 358.363281 122.527344 L 358.363281 329.726562 Z M 360.027344 329.726562 " fill-opacity="1" fill-rule="nonzero"/></g><path fill="#ebebeb" d="M 120.984375 135.007812 C 134.285156 137.089844 145.511719 140.417969 152.164062 144.578125 C 153.410156 145.410156 154.65625 145.824219 155.90625 145.824219 C 158.398438 145.824219 160.894531 144.578125 162.140625 142.496094 C 164.21875 139.167969 162.972656 134.59375 159.644531 132.511719 C 150.917969 127.101562 138.027344 123.359375 122.648438 120.863281 C 118.488281 120.445312 114.746094 122.941406 114.332031 127.101562 C 114.332031 130.847656 116.828125 134.59375 120.984375 135.007812 Z M 120.984375 135.007812 " fill-opacity="1" fill-rule="nonzero"/><path fill="#ebebeb" d="M 71.929688 136.257812 C 72.34375 136.257812 73.175781 136.257812 73.589844 135.839844 C 79.410156 134.59375 86.0625 133.34375 93.128906 133.34375 C 97.289062 133.34375 100.199219 129.597656 100.199219 125.855469 C 100.199219 122.109375 96.457031 118.78125 92.714844 118.78125 C 84.398438 119.199219 76.917969 120.03125 70.265625 121.695312 C 66.523438 122.527344 64.027344 126.6875 64.859375 130.433594 C 65.691406 134.175781 68.601562 136.257812 71.929688 136.257812 Z M 71.929688 136.257812 " fill-opacity="1" fill-rule="nonzero"/><path fill="#ebebeb" d="M 70.265625 153.316406 C 66.523438 154.148438 64.027344 158.308594 64.859375 162.050781 C 65.691406 165.382812 68.601562 167.460938 71.929688 167.460938 C 72.34375 167.460938 73.175781 167.460938 73.589844 167.046875 C 83.984375 164.550781 97.703125 163.71875 111.835938 164.964844 C 115.996094 165.382812 119.320312 162.46875 119.738281 158.308594 C 120.152344 154.148438 117.242188 150.820312 113.085938 150.402344 C 97.289062 149.570312 82.320312 150.402344 70.265625 153.316406 Z M 70.265625 153.316406 " fill-opacity="1" fill-rule="nonzero"/><path fill="#ebebeb" d="M 152.164062 176.199219 C 153.410156 177.03125 154.65625 177.445312 155.90625 177.445312 C 158.398438 177.445312 160.894531 176.199219 162.140625 174.117188 C 164.21875 170.789062 162.972656 166.214844 159.644531 164.132812 C 155.074219 161.636719 149.667969 159.140625 143.015625 157.058594 C 139.277344 155.8125 135.117188 157.890625 133.871094 162.050781 C 132.625 165.796875 134.703125 169.957031 138.859375 171.207031 C 144.679688 172.039062 148.835938 174.117188 152.164062 176.199219 Z M 152.164062 176.199219 " fill-opacity="1" fill-rule="nonzero"/><path fill="#ebebeb" d="M 160.0625 194.921875 C 139.691406 182.441406 97.703125 177.863281 70.265625 184.9375 C 66.523438 185.769531 64.027344 189.929688 64.859375 193.671875 C 65.691406 197.417969 69.847656 199.914062 73.589844 199.082031 C 97.289062 193.257812 135.117188 197.417969 152.164062 207.402344 C 153.410156 208.234375 154.65625 208.652344 155.90625 208.652344 C 158.398438 208.652344 160.894531 207.402344 162.140625 205.324219 C 164.636719 201.578125 163.386719 197.003906 160.0625 194.921875 Z M 160.0625 194.921875 " fill-opacity="1" fill-rule="nonzero"/><path fill="#ebebeb" d="M 71.929688 230.703125 C 72.34375 230.703125 73.175781 230.703125 73.589844 230.289062 C 76.5 229.457031 79.828125 229.039062 83.152344 228.621094 C 87.308594 228.207031 89.804688 224.460938 89.386719 220.300781 C 88.972656 216.140625 85.230469 213.644531 81.074219 214.0625 C 76.917969 214.476562 73.175781 215.308594 69.847656 216.140625 C 66.109375 216.972656 63.613281 221.132812 64.445312 224.878906 C 65.691406 228.207031 68.601562 230.703125 71.929688 230.703125 Z M 71.929688 230.703125 " fill-opacity="1" fill-rule="nonzero"/><path fill="#ebebeb" d="M 160.0625 226.125 C 149.667969 219.886719 132.625 215.308594 113.917969 213.644531 C 109.757812 213.230469 106.433594 216.140625 106.019531 220.300781 C 105.601562 224.460938 108.511719 227.789062 112.667969 228.207031 C 129.296875 229.871094 144.265625 233.617188 152.578125 238.609375 C 153.824219 239.441406 155.074219 239.855469 156.320312 239.855469 C 158.816406 239.855469 161.308594 238.609375 162.554688 236.527344 C 164.636719 232.785156 163.386719 228.207031 160.0625 226.125 Z M 160.0625 226.125 " fill-opacity="1" fill-rule="nonzero"/><path fill="#ebebeb" d="M 160.0625 257.746094 C 139.691406 245.265625 97.703125 240.6875 70.265625 247.761719 C 66.523438 248.59375 64.027344 252.753906 64.859375 256.5 C 65.691406 260.242188 69.847656 262.742188 73.589844 261.910156 C 97.289062 256.082031 135.117188 260.242188 152.164062 270.230469 C 153.410156 271.0625 154.65625 271.476562 155.90625 271.476562 C 158.398438 271.476562 160.894531 270.230469 162.140625 268.148438 C 164.636719 264.40625 163.386719 259.828125 160.0625 257.746094 Z M 160.0625 257.746094 " fill-opacity="1" fill-rule="nonzero"/></svg>