<svg xmlns="http://www.w3.org/2000/svg" xmlns:xlink="http://www.w3.org/1999/xlink" width="500" zoomAndPan="magnify" viewBox="0 0 375 374.999991" height="500" preserveAspectRatio="xMidYMid meet" version="1.0"><defs><clipPath id="055aa8f657"><path d="M 130 0 L 375 0 L 375 373.5 L 130 373.5 Z M 130 0 " clip-rule="nonzero"/></clipPath></defs><path fill="#ee4266" d="M 7.503906 173.105469 L 80.289062 100.335938 C 80.738281 99.890625 81.207031 99.464844 81.695312 99.0625 C 82.183594 98.664062 82.691406 98.289062 83.214844 97.9375 C 83.742188 97.585938 84.28125 97.261719 84.839844 96.960938 C 85.398438 96.664062 85.96875 96.394531 86.550781 96.152344 C 87.136719 95.910156 87.730469 95.699219 88.335938 95.515625 C 88.941406 95.332031 89.554688 95.179688 90.171875 95.054688 C 90.792969 94.929688 91.417969 94.839844 92.046875 94.777344 C 92.675781 94.714844 93.308594 94.683594 93.9375 94.683594 C 94.570312 94.683594 95.203125 94.714844 95.832031 94.777344 C 96.460938 94.839844 97.085938 94.929688 97.703125 95.054688 C 98.324219 95.179688 98.9375 95.332031 99.542969 95.515625 C 100.148438 95.699219 100.742188 95.910156 101.324219 96.152344 C 101.910156 96.394531 102.480469 96.664062 103.039062 96.960938 C 103.59375 97.261719 104.136719 97.585938 104.664062 97.9375 C 105.1875 98.289062 105.695312 98.664062 106.183594 99.0625 C 106.671875 99.464844 107.140625 99.890625 107.585938 100.335938 C 108.035156 100.78125 108.457031 101.25 108.859375 101.738281 C 109.261719 102.226562 109.636719 102.734375 109.988281 103.261719 C 110.339844 103.785156 110.664062 104.328125 110.960938 104.882812 C 111.257812 105.441406 111.527344 106.011719 111.769531 106.597656 C 112.011719 107.179688 112.226562 107.773438 112.410156 108.378906 C 112.59375 108.984375 112.746094 109.597656 112.871094 110.214844 C 112.992188 110.835938 113.085938 111.460938 113.148438 112.089844 C 113.210938 112.71875 113.238281 113.347656 113.238281 113.980469 C 113.238281 114.613281 113.210938 115.242188 113.148438 115.871094 C 113.085938 116.5 112.992188 117.125 112.871094 117.746094 C 112.746094 118.363281 112.59375 118.976562 112.410156 119.582031 C 112.226562 120.1875 112.011719 120.78125 111.769531 121.363281 C 111.527344 121.949219 111.257812 122.519531 110.960938 123.078125 C 110.664062 123.632812 110.339844 124.175781 109.988281 124.699219 C 109.636719 125.226562 109.261719 125.734375 108.859375 126.222656 C 108.457031 126.710938 108.035156 127.175781 107.585938 127.625 L 67.746094 167.453125 L 278.496094 167.453125 C 279.128906 167.453125 279.757812 167.484375 280.386719 167.546875 C 281.015625 167.609375 281.640625 167.703125 282.261719 167.824219 C 282.882812 167.949219 283.492188 168.101562 284.097656 168.285156 C 284.703125 168.46875 285.296875 168.679688 285.882812 168.921875 C 286.464844 169.164062 287.035156 169.433594 287.59375 169.730469 C 288.152344 170.03125 288.691406 170.355469 289.21875 170.707031 C 289.746094 171.058594 290.25 171.433594 290.738281 171.832031 C 291.230469 172.234375 291.695312 172.660156 292.144531 173.105469 C 292.589844 173.550781 293.015625 174.019531 293.414062 174.507812 C 293.816406 174.996094 294.191406 175.503906 294.542969 176.03125 C 294.894531 176.554688 295.21875 177.097656 295.515625 177.652344 C 295.816406 178.210938 296.085938 178.78125 296.328125 179.367188 C 296.570312 179.949219 296.78125 180.542969 296.964844 181.148438 C 297.148438 181.753906 297.300781 182.367188 297.425781 182.984375 C 297.550781 183.605469 297.640625 184.230469 297.703125 184.859375 C 297.765625 185.488281 297.796875 186.117188 297.796875 186.75 C 297.796875 187.382812 297.765625 188.011719 297.703125 188.640625 C 297.640625 189.269531 297.550781 189.894531 297.425781 190.515625 C 297.300781 191.132812 297.148438 191.746094 296.964844 192.351562 C 296.78125 192.957031 296.570312 193.550781 296.328125 194.132812 C 296.085938 194.71875 295.816406 195.289062 295.515625 195.847656 C 295.21875 196.402344 294.894531 196.945312 294.542969 197.46875 C 294.191406 197.996094 293.816406 198.503906 293.414062 198.992188 C 293.015625 199.480469 292.589844 199.949219 292.144531 200.394531 C 291.695312 200.839844 291.230469 201.265625 290.738281 201.667969 C 290.25 202.066406 289.746094 202.441406 289.21875 202.792969 C 288.691406 203.144531 288.152344 203.46875 287.59375 203.765625 C 287.035156 204.066406 286.464844 204.335938 285.882812 204.578125 C 285.296875 204.820312 284.703125 205.03125 284.097656 205.214844 C 283.492188 205.398438 282.882812 205.550781 282.261719 205.675781 C 281.640625 205.796875 281.015625 205.890625 280.386719 205.953125 C 279.757812 206.015625 279.128906 206.046875 278.496094 206.046875 L 67.746094 206.046875 L 107.585938 245.875 C 108.035156 246.324219 108.457031 246.789062 108.859375 247.277344 C 109.261719 247.765625 109.636719 248.273438 109.988281 248.800781 C 110.339844 249.324219 110.664062 249.867188 110.960938 250.421875 C 111.257812 250.980469 111.527344 251.550781 111.769531 252.136719 C 112.011719 252.71875 112.226562 253.3125 112.410156 253.917969 C 112.59375 254.523438 112.746094 255.136719 112.871094 255.753906 C 112.992188 256.375 113.085938 257 113.148438 257.628906 C 113.210938 258.257812 113.238281 258.886719 113.238281 259.519531 C 113.238281 260.152344 113.210938 260.78125 113.148438 261.410156 C 113.085938 262.039062 112.992188 262.664062 112.871094 263.285156 C 112.746094 263.90625 112.59375 264.515625 112.410156 265.121094 C 112.226562 265.726562 112.011719 266.320312 111.769531 266.90625 C 111.527344 267.488281 111.257812 268.058594 110.960938 268.617188 C 110.664062 269.171875 110.339844 269.714844 109.988281 270.242188 C 109.636719 270.765625 109.261719 271.273438 108.859375 271.761719 C 108.457031 272.25 108.035156 272.71875 107.585938 273.164062 C 107.140625 273.613281 106.671875 274.035156 106.183594 274.4375 C 105.695312 274.835938 105.1875 275.214844 104.660156 275.5625 C 104.136719 275.914062 103.59375 276.238281 103.039062 276.539062 C 102.480469 276.835938 101.910156 277.105469 101.324219 277.347656 C 100.742188 277.589844 100.144531 277.800781 99.542969 277.984375 C 98.9375 278.167969 98.324219 278.320312 97.703125 278.445312 C 97.085938 278.570312 96.460938 278.660156 95.832031 278.722656 C 95.203125 278.785156 94.570312 278.816406 93.9375 278.816406 C 93.304688 278.816406 92.675781 278.785156 92.046875 278.722656 C 91.417969 278.660156 90.792969 278.570312 90.171875 278.445312 C 89.554688 278.320312 88.941406 278.167969 88.335938 277.984375 C 87.730469 277.800781 87.136719 277.589844 86.550781 277.347656 C 85.96875 277.105469 85.398438 276.835938 84.839844 276.539062 C 84.28125 276.238281 83.742188 275.914062 83.214844 275.5625 C 82.691406 275.210938 82.183594 274.835938 81.695312 274.4375 C 81.207031 274.035156 80.738281 273.609375 80.289062 273.164062 L 7.503906 200.394531 C 7.054688 199.945312 6.632812 199.480469 6.230469 198.992188 C 5.828125 198.503906 5.453125 197.996094 5.101562 197.46875 C 4.75 196.945312 4.425781 196.402344 4.128906 195.84375 C 3.832031 195.289062 3.558594 194.71875 3.320312 194.132812 C 3.078125 193.550781 2.863281 192.957031 2.679688 192.351562 C 2.496094 191.746094 2.34375 191.132812 2.21875 190.515625 C 2.097656 189.894531 2.003906 189.269531 1.941406 188.640625 C 1.878906 188.011719 1.847656 187.382812 1.847656 186.75 C 1.847656 186.117188 1.878906 185.488281 1.941406 184.859375 C 2.003906 184.230469 2.097656 183.605469 2.21875 182.984375 C 2.34375 182.367188 2.496094 181.753906 2.679688 181.148438 C 2.863281 180.542969 3.078125 179.949219 3.320312 179.367188 C 3.558594 178.78125 3.832031 178.210938 4.128906 177.652344 C 4.425781 177.097656 4.75 176.554688 5.101562 176.03125 C 5.453125 175.503906 5.828125 174.996094 6.230469 174.507812 C 6.632812 174.019531 7.054688 173.550781 7.503906 173.105469 Z M 7.503906 173.105469 " fill-opacity="1" fill-rule="nonzero"/><g clip-path="url(#055aa8f657)"><path fill="#ee4266" d="M 149.824219 296.09375 C 150.457031 296.09375 151.085938 296.125 151.714844 296.1875 C 152.34375 296.25 152.96875 296.339844 153.589844 296.464844 C 154.207031 296.589844 154.820312 296.742188 155.425781 296.925781 C 156.03125 297.109375 156.625 297.320312 157.210938 297.5625 C 157.792969 297.804688 158.363281 298.074219 158.921875 298.371094 C 159.480469 298.671875 160.019531 298.996094 160.546875 299.347656 C 161.070312 299.695312 161.578125 300.074219 162.066406 300.472656 C 162.554688 300.875 163.023438 301.300781 163.472656 301.746094 C 163.917969 302.191406 164.34375 302.660156 164.742188 303.148438 C 165.144531 303.636719 165.519531 304.144531 165.871094 304.667969 C 166.222656 305.195312 166.546875 305.738281 166.84375 306.292969 C 167.144531 306.851562 167.414062 307.421875 167.65625 308.007812 C 167.898438 308.589844 168.109375 309.183594 168.292969 309.789062 C 168.476562 310.394531 168.628906 311.007812 168.753906 311.625 C 168.875 312.246094 168.96875 312.871094 169.03125 313.5 C 169.09375 314.128906 169.125 314.757812 169.125 315.390625 L 169.125 334.6875 L 336.398438 334.6875 L 336.398438 38.8125 L 169.125 38.8125 L 169.125 58.109375 C 169.125 58.742188 169.09375 59.371094 169.03125 60 C 168.96875 60.628906 168.875 61.253906 168.753906 61.875 C 168.628906 62.492188 168.476562 63.105469 168.292969 63.710938 C 168.109375 64.316406 167.898438 64.910156 167.65625 65.492188 C 167.414062 66.078125 167.144531 66.648438 166.84375 67.207031 C 166.546875 67.761719 166.222656 68.304688 165.871094 68.828125 C 165.519531 69.355469 165.144531 69.863281 164.742188 70.351562 C 164.34375 70.839844 163.917969 71.308594 163.472656 71.753906 C 163.023438 72.199219 162.554688 72.625 162.066406 73.027344 C 161.578125 73.425781 161.070312 73.800781 160.546875 74.152344 C 160.019531 74.503906 159.480469 74.828125 158.921875 75.128906 C 158.363281 75.425781 157.792969 75.695312 157.210938 75.9375 C 156.625 76.179688 156.03125 76.390625 155.425781 76.574219 C 154.820312 76.757812 154.207031 76.910156 153.589844 77.035156 C 152.96875 77.160156 152.34375 77.25 151.714844 77.3125 C 151.085938 77.375 150.457031 77.40625 149.824219 77.40625 C 149.191406 77.40625 148.558594 77.375 147.929688 77.3125 C 147.300781 77.25 146.675781 77.160156 146.058594 77.035156 C 145.4375 76.910156 144.824219 76.757812 144.21875 76.574219 C 143.617188 76.390625 143.019531 76.179688 142.4375 75.9375 C 141.851562 75.695312 141.28125 75.425781 140.726562 75.128906 C 140.167969 74.828125 139.625 74.503906 139.101562 74.152344 C 138.574219 73.800781 138.066406 73.425781 137.578125 73.027344 C 137.089844 72.625 136.621094 72.199219 136.175781 71.753906 C 135.726562 71.308594 135.304688 70.839844 134.902344 70.351562 C 134.503906 69.863281 134.125 69.355469 133.773438 68.828125 C 133.421875 68.304688 133.097656 67.761719 132.800781 67.207031 C 132.503906 66.648438 132.234375 66.078125 131.992188 65.492188 C 131.75 64.910156 131.535156 64.316406 131.351562 63.710938 C 131.167969 63.105469 131.015625 62.492188 130.894531 61.875 C 130.769531 61.253906 130.675781 60.628906 130.613281 60 C 130.554688 59.371094 130.523438 58.742188 130.523438 58.109375 L 130.523438 32.382812 C 130.523438 31.328125 130.574219 30.277344 130.675781 29.230469 C 130.78125 28.179688 130.933594 27.140625 131.140625 26.109375 C 131.347656 25.074219 131.601562 24.054688 131.90625 23.046875 C 132.214844 22.039062 132.566406 21.046875 132.972656 20.074219 C 133.375 19.101562 133.824219 18.152344 134.320312 17.222656 C 134.816406 16.292969 135.359375 15.390625 135.945312 14.515625 C 136.527344 13.640625 137.15625 12.792969 137.824219 11.980469 C 138.492188 11.164062 139.199219 10.386719 139.945312 9.640625 C 140.6875 8.894531 141.46875 8.191406 142.28125 7.523438 C 143.097656 6.851562 143.941406 6.226562 144.820312 5.640625 C 145.695312 5.054688 146.597656 4.515625 147.527344 4.019531 C 148.457031 3.523438 149.40625 3.074219 150.378906 2.667969 C 151.351562 2.265625 152.34375 1.914062 153.351562 1.605469 C 154.359375 1.300781 155.382812 1.046875 156.414062 0.839844 C 157.449219 0.632812 158.488281 0.480469 159.539062 0.375 C 160.585938 0.273438 161.636719 0.222656 162.691406 0.222656 L 342.832031 0.222656 C 343.886719 0.222656 344.9375 0.273438 345.984375 0.375 C 347.035156 0.480469 348.074219 0.632812 349.109375 0.839844 C 350.140625 1.046875 351.160156 1.300781 352.167969 1.605469 C 353.179688 1.914062 354.167969 2.265625 355.140625 2.667969 C 356.117188 3.074219 357.066406 3.523438 357.996094 4.019531 C 358.925781 4.515625 359.828125 5.054688 360.703125 5.640625 C 361.578125 6.226562 362.425781 6.851562 363.238281 7.523438 C 364.054688 8.191406 364.832031 8.894531 365.578125 9.640625 C 366.324219 10.386719 367.03125 11.164062 367.699219 11.980469 C 368.367188 12.792969 368.992188 13.640625 369.578125 14.515625 C 370.164062 15.390625 370.703125 16.292969 371.203125 17.222656 C 371.699219 18.152344 372.148438 19.101562 372.550781 20.074219 C 372.953125 21.046875 373.308594 22.039062 373.613281 23.046875 C 373.921875 24.054688 374.175781 25.074219 374.382812 26.109375 C 374.585938 27.140625 374.742188 28.179688 374.84375 29.230469 C 374.949219 30.277344 375 31.328125 375 32.382812 L 375 341.117188 C 375 342.171875 374.949219 343.222656 374.84375 344.269531 C 374.742188 345.320312 374.585938 346.359375 374.382812 347.390625 C 374.175781 348.425781 373.921875 349.445312 373.613281 350.453125 C 373.308594 351.460938 372.953125 352.453125 372.550781 353.425781 C 372.148438 354.398438 371.699219 355.347656 371.203125 356.277344 C 370.703125 357.207031 370.164062 358.109375 369.578125 358.984375 C 368.992188 359.859375 368.367188 360.707031 367.699219 361.519531 C 367.03125 362.335938 366.324219 363.113281 365.578125 363.859375 C 364.832031 364.605469 364.054688 365.308594 363.238281 365.976562 C 362.425781 366.648438 361.578125 367.273438 360.703125 367.859375 C 359.828125 368.445312 358.925781 368.984375 357.996094 369.480469 C 357.066406 369.976562 356.117188 370.425781 355.140625 370.832031 C 354.167969 371.234375 353.179688 371.585938 352.167969 371.894531 C 351.160156 372.199219 350.140625 372.453125 349.109375 372.660156 C 348.074219 372.867188 347.035156 373.019531 345.984375 373.125 C 344.9375 373.226562 343.886719 373.277344 342.832031 373.277344 L 162.691406 373.277344 C 161.636719 373.277344 160.585938 373.226562 159.539062 373.125 C 158.488281 373.019531 157.449219 372.867188 156.414062 372.660156 C 155.382812 372.453125 154.359375 372.199219 153.351562 371.894531 C 152.34375 371.585938 151.351562 371.234375 150.378906 370.832031 C 149.40625 370.425781 148.457031 369.976562 147.527344 369.480469 C 146.597656 368.984375 145.695312 368.445312 144.820312 367.859375 C 143.941406 367.273438 143.097656 366.648438 142.28125 365.976562 C 141.46875 365.308594 140.6875 364.605469 139.945312 363.859375 C 139.199219 363.113281 138.492188 362.335938 137.824219 361.519531 C 137.15625 360.707031 136.527344 359.859375 135.945312 358.984375 C 135.359375 358.109375 134.816406 357.207031 134.320312 356.277344 C 133.824219 355.347656 133.375 354.398438 132.972656 353.425781 C 132.566406 352.453125 132.214844 351.460938 131.90625 350.453125 C 131.601562 349.445312 131.347656 348.425781 131.140625 347.390625 C 130.933594 346.359375 130.78125 345.320312 130.675781 344.269531 C 130.574219 343.222656 130.523438 342.171875 130.523438 341.117188 L 130.523438 315.390625 C 130.523438 314.757812 130.554688 314.128906 130.613281 313.5 C 130.675781 312.871094 130.769531 312.246094 130.894531 311.625 C 131.015625 311.007812 131.167969 310.394531 131.351562 309.789062 C 131.535156 309.183594 131.75 308.589844 131.992188 308.007812 C 132.234375 307.421875 132.503906 306.851562 132.800781 306.292969 C 133.097656 305.738281 133.421875 305.195312 133.773438 304.667969 C 134.125 304.144531 134.503906 303.636719 134.902344 303.148438 C 135.304688 302.660156 135.726562 302.191406 136.175781 301.746094 C 136.621094 301.300781 137.089844 300.875 137.578125 300.472656 C 138.066406 300.074219 138.574219 299.695312 139.101562 299.347656 C 139.625 298.996094 140.167969 298.671875 140.726562 298.371094 C 141.28125 298.074219 141.851562 297.804688 142.4375 297.5625 C 143.019531 297.320312 143.617188 297.109375 144.21875 296.925781 C 144.824219 296.742188 145.4375 296.589844 146.058594 296.464844 C 146.675781 296.339844 147.300781 296.25 147.929688 296.1875 C 148.558594 296.125 149.191406 296.09375 149.824219 296.09375 Z M 149.824219 296.09375 " fill-opacity="1" fill-rule="nonzero"/></g></svg>