<svg xmlns="http://www.w3.org/2000/svg" xmlns:xlink="http://www.w3.org/1999/xlink" width="500" zoomAndPan="magnify" viewBox="0 0 375 374.999991" height="500" preserveAspectRatio="xMidYMid meet" version="1.0"><defs><clipPath id="fc3e327a71"><path d="M 138.332031 11.34375 L 236.667969 11.34375 L 236.667969 109.683594 L 138.332031 109.683594 Z M 138.332031 11.34375 " clip-rule="nonzero"/></clipPath><clipPath id="c4aaa234a1"><path d="M 187.5 11.34375 C 160.34375 11.34375 138.332031 33.355469 138.332031 60.511719 C 138.332031 87.667969 160.34375 109.683594 187.5 109.683594 C 214.65625 109.683594 236.667969 87.667969 236.667969 60.511719 C 236.667969 33.355469 214.65625 11.34375 187.5 11.34375 " clip-rule="nonzero"/></clipPath><clipPath id="725b21ece2"><path d="M 138.332031 138.0625 L 236.667969 138.0625 L 236.667969 236.398438 L 138.332031 236.398438 Z M 138.332031 138.0625 " clip-rule="nonzero"/></clipPath><clipPath id="0e4124b476"><path d="M 187.5 138.0625 C 160.34375 138.0625 138.332031 160.074219 138.332031 187.230469 C 138.332031 214.386719 160.34375 236.398438 187.5 236.398438 C 214.65625 236.398438 236.667969 214.386719 236.667969 187.230469 C 236.667969 160.074219 214.65625 138.0625 187.5 138.0625 " clip-rule="nonzero"/></clipPath><clipPath id="f0c948f1d4"><path d="M 138.332031 265.316406 L 236.667969 265.316406 L 236.667969 363.65625 L 138.332031 363.65625 Z M 138.332031 265.316406 " clip-rule="nonzero"/></clipPath><clipPath id="e303119275"><path d="M 187.5 265.316406 C 160.34375 265.316406 138.332031 287.332031 138.332031 314.488281 C 138.332031 341.644531 160.34375 363.65625 187.5 363.65625 C 214.65625 363.65625 236.667969 341.644531 236.667969 314.488281 C 236.667969 287.332031 214.65625 265.316406 187.5 265.316406 " clip-rule="nonzero"/></clipPath></defs><g clip-path="url(#fc3e327a71)"><g clip-path="url(#c4aaa234a1)"><path fill="#ebebeb" d="M 138.332031 11.34375 L 236.667969 11.34375 L 236.667969 109.683594 L 138.332031 109.683594 Z M 138.332031 11.34375 " fill-opacity="1" fill-rule="nonzero"/></g></g><g clip-path="url(#725b21ece2)"><g clip-path="url(#0e4124b476)"><path fill="#ebebeb" d="M 138.332031 138.0625 L 236.667969 138.0625 L 236.667969 236.398438 L 138.332031 236.398438 Z M 138.332031 138.0625 " fill-opacity="1" fill-rule="nonzero"/></g></g><g clip-path="url(#f0c948f1d4)"><g clip-path="url(#e303119275)"><path fill="#ebebeb" d="M 138.332031 265.316406 L 236.667969 265.316406 L 236.667969 363.65625 L 138.332031 363.65625 Z M 138.332031 265.316406 " fill-opacity="1" fill-rule="nonzero"/></g></g></svg>