<svg xmlns="http://www.w3.org/2000/svg" xmlns:xlink="http://www.w3.org/1999/xlink" width="500" zoomAndPan="magnify" viewBox="0 0 375 374.999991" height="500" preserveAspectRatio="xMidYMid meet" version="1.0"><defs><clipPath id="9b74844655"><path d="M 22.351562 63.636719 L 352.351562 63.636719 L 352.351562 311.136719 L 22.351562 311.136719 Z M 22.351562 63.636719 " clip-rule="nonzero"/></clipPath></defs><g clip-path="url(#9b74844655)"><path fill="#ebebeb" d="M 352.34375 63.640625 L 352.34375 275.058594 C 352.34375 295.632812 337.28125 311.132812 318.460938 311.132812 L 67.179688 311.132812 C 36.097656 311.132812 22.347656 297.820312 22.347656 258.425781 L 22.347656 106.546875 L 65.867188 106.546875 L 65.867188 63.644531 L 352.335938 63.644531 Z M 65.878906 127.300781 L 43.113281 127.300781 L 43.113281 258.421875 C 43.113281 278.558594 47.929688 288.1875 54.058594 288.1875 C 61.5 288.1875 65.878906 278.558594 65.878906 258.421875 Z M 331.59375 84.398438 L 86.628906 84.398438 L 86.628906 258.414062 C 86.628906 272.421875 84 282.492188 80.0625 290.371094 L 318.46875 290.371094 C 326.347656 290.371094 331.601562 281.179688 331.601562 275.050781 Z M 182.753906 170.453125 L 122 170.453125 L 122 162.570312 L 182.753906 162.570312 Z M 182.753906 196.277344 L 122 196.277344 L 122 188.398438 L 182.753906 188.398438 Z M 182.753906 221.230469 L 122 221.230469 L 122 213.351562 L 182.753906 213.351562 Z M 182.753906 245.308594 L 122 245.308594 L 122 237.425781 L 182.753906 237.425781 Z M 135.476562 121.859375 L 281.25 121.859375 L 281.25 136.457031 L 135.476562 136.457031 Z M 204.644531 162.570312 L 297.882812 162.570312 L 297.882812 237.023438 L 204.644531 237.023438 Z M 204.644531 162.570312 " fill-opacity="1" fill-rule="nonzero"/></g></svg>