<svg xmlns="http://www.w3.org/2000/svg" xmlns:xlink="http://www.w3.org/1999/xlink" width="500" zoomAndPan="magnify" viewBox="0 0 375 374.999991" height="500" preserveAspectRatio="xMidYMid meet" version="1.0"><defs><clipPath id="0dc95fd43f"><path d="M 156 312.421875 L 219.929688 312.421875 L 219.929688 339.558594 L 156 339.558594 Z M 156 312.421875 " clip-rule="nonzero"/></clipPath><clipPath id="aea4ba7499"><path d="M 157 35.15625 L 218 35.15625 L 218 67 L 157 67 Z M 157 35.15625 " clip-rule="nonzero"/></clipPath></defs><g clip-path="url(#0dc95fd43f)"><path fill="#ebebeb" d="M 208.242188 312.734375 L 156.078125 312.734375 C 158.652344 327.941406 171.914062 339.558594 187.847656 339.558594 C 203.78125 339.558594 217.046875 327.941406 219.613281 312.734375 L 208.242188 312.734375 " fill-opacity="1" fill-rule="nonzero"/></g><g clip-path="url(#aea4ba7499)"><path fill="#ebebeb" d="M 169.148438 63.3125 C 175.207031 62.066406 181.457031 61.410156 187.847656 61.410156 C 194.242188 61.410156 200.488281 62.066406 206.542969 63.3125 C 208.492188 63.714844 210.421875 64.167969 212.328125 64.691406 C 214.234375 65.210938 216.121094 65.800781 217.984375 66.4375 C 217.640625 49.167969 204.257812 35.230469 187.847656 35.230469 C 171.4375 35.230469 158.054688 49.167969 157.710938 66.4375 C 159.574219 65.800781 161.457031 65.210938 163.367188 64.691406 C 165.273438 64.167969 167.203125 63.714844 169.148438 63.3125 " fill-opacity="1" fill-rule="nonzero"/></g><path fill="#ebebeb" d="M 299.761719 270.753906 C 292.390625 263.796875 284.765625 256.609375 278.636719 246.710938 C 268.699219 230.667969 274.847656 171.570312 275.023438 169.902344 L 274.957031 169.449219 L 274.972656 168.957031 C 275.007812 167.875 275.027344 166.875 275.027344 165.898438 C 275.027344 125.523438 250.976562 91.0625 217.417969 78.0625 C 215.605469 77.363281 213.769531 76.722656 211.90625 76.148438 C 210.078125 75.589844 208.230469 75.089844 206.359375 74.65625 C 200.390625 73.269531 194.195312 72.53125 187.847656 72.53125 C 181.496094 72.53125 175.304688 73.269531 169.335938 74.65625 C 167.464844 75.089844 165.613281 75.589844 163.789062 76.148438 C 161.925781 76.722656 160.085938 77.363281 158.277344 78.0625 C 124.71875 91.0625 100.667969 125.523438 100.667969 165.898438 C 100.667969 166.875 100.683594 167.875 100.71875 168.957031 L 100.734375 169.449219 L 100.671875 169.902344 C 100.855469 171.664062 106.984375 230.679688 97.054688 246.710938 C 90.925781 256.609375 83.304688 263.796875 75.933594 270.753906 C 72.269531 274.207031 68.058594 281.0625 65.214844 288.207031 C 62.410156 295.257812 61.996094 299.789062 62.25 301.609375 L 314.023438 301.609375 C 314.34375 300 313.96875 295.472656 310.886719 288.199219 C 307.902344 281.160156 303.535156 274.3125 299.761719 270.753906 " fill-opacity="1" fill-rule="nonzero"/><path fill="#ebebeb" d="M 67.96875 219.71875 C 72.097656 216.78125 73.058594 211.046875 70.117188 206.917969 C 62.636719 196.425781 58.679688 184.039062 58.679688 171.101562 C 58.679688 158.761719 62.304688 146.851562 69.15625 136.660156 C 71.988281 132.453125 70.871094 126.753906 66.664062 123.925781 C 62.453125 121.097656 56.746094 122.214844 53.917969 126.417969 C 45.019531 139.648438 40.316406 155.097656 40.316406 171.101562 C 40.316406 187.878906 45.449219 203.949219 55.160156 217.570312 C 56.953125 220.085938 59.777344 221.421875 62.644531 221.421875 C 64.488281 221.421875 66.351562 220.871094 67.96875 219.71875 " fill-opacity="1" fill-rule="nonzero"/><path fill="#ebebeb" d="M 22.261719 171.101562 C 22.261719 152.074219 27.703125 133.621094 38.007812 117.742188 C 41.351562 112.585938 39.878906 105.699219 34.722656 102.359375 C 29.566406 99.011719 22.671875 100.484375 19.328125 105.640625 C 6.683594 125.132812 0 147.769531 0 171.101562 C 0 196.777344 7.96875 221.285156 23.050781 241.976562 C 25.230469 244.964844 28.617188 246.550781 32.058594 246.550781 C 34.328125 246.550781 36.625 245.855469 38.597656 244.417969 C 43.566406 240.800781 44.664062 233.839844 41.042969 228.878906 C 28.753906 212.015625 22.261719 192.035156 22.261719 171.101562 " fill-opacity="1" fill-rule="nonzero"/><path fill="#ebebeb" d="M 307.675781 123.085938 C 303.511719 125.976562 302.476562 131.695312 305.367188 135.859375 C 312.554688 146.214844 316.355469 158.378906 316.355469 171.042969 C 316.355469 183.34375 312.753906 195.21875 305.941406 205.386719 C 303.121094 209.597656 304.25 215.296875 308.460938 218.113281 C 310.03125 219.164062 311.804688 219.667969 313.5625 219.667969 C 316.523438 219.667969 319.429688 218.238281 321.203125 215.597656 C 330.042969 202.398438 334.71875 186.988281 334.71875 171.042969 C 334.71875 154.625 329.785156 138.839844 320.453125 125.398438 C 317.566406 121.234375 311.84375 120.199219 307.675781 123.085938 " fill-opacity="1" fill-rule="nonzero"/><path fill="#ebebeb" d="M 356.757812 107.234375 C 353.5 102.027344 346.632812 100.445312 341.421875 103.699219 C 336.207031 106.960938 334.625 113.824219 337.886719 119.03125 C 347.628906 134.59375 352.773438 152.582031 352.773438 171.042969 C 352.773438 188.597656 348.089844 205.820312 339.230469 220.847656 C 336.109375 226.140625 337.871094 232.957031 343.167969 236.074219 C 344.945312 237.121094 346.890625 237.617188 348.808594 237.617188 C 352.621094 237.617188 356.332031 235.660156 358.40625 232.140625 C 369.285156 213.695312 375.035156 192.566406 375.035156 171.042969 C 375.035156 148.402344 368.714844 126.339844 356.757812 107.234375 " fill-opacity="1" fill-rule="nonzero"/></svg>