<svg xmlns="http://www.w3.org/2000/svg" xmlns:xlink="http://www.w3.org/1999/xlink" width="500" zoomAndPan="magnify" viewBox="0 0 375 374.999991" height="500" preserveAspectRatio="xMidYMid meet" version="1.0"><defs><clipPath id="a6add8aaa9"><path d="M 0 37.5 L 375 37.5 L 375 330.75 L 0 330.75 Z M 0 37.5 " clip-rule="nonzero"/></clipPath></defs><g clip-path="url(#a6add8aaa9)"><path fill="#f0f4ef" d="M 114.90625 116.460938 C 120.058594 81.019531 150.605469 53.792969 187.5 53.792969 C 224.394531 53.792969 254.941406 81.019531 260.09375 116.460938 C 260.445312 118.890625 261.878906 121.03125 263.988281 122.289062 C 266.097656 123.546875 268.664062 123.785156 270.972656 122.9375 C 277.972656 120.367188 285.542969 118.957031 293.464844 118.957031 C 329.476562 118.957031 358.671875 148.136719 358.671875 184.125 C 358.671875 220.113281 329.476562 249.292969 293.464844 249.292969 L 236.40625 249.292969 C 231.90625 249.292969 228.253906 252.9375 228.253906 257.4375 C 228.253906 261.9375 231.90625 265.582031 236.40625 265.582031 L 293.464844 265.582031 C 338.480469 265.582031 374.972656 229.113281 374.972656 184.125 C 374.972656 139.136719 338.480469 102.667969 293.464844 102.667969 C 286.902344 102.667969 280.511719 103.441406 274.386719 104.910156 C 264.503906 66.15625 229.355469 37.5 187.5 37.5 C 145.644531 37.5 110.496094 66.15625 100.613281 104.910156 C 94.488281 103.441406 88.097656 102.667969 81.535156 102.667969 C 36.519531 102.667969 0.0273438 139.136719 0.0273438 184.125 C 0.0273438 229.113281 36.519531 265.582031 81.535156 265.582031 L 138.59375 265.582031 C 143.09375 265.582031 146.746094 261.9375 146.746094 257.4375 C 146.746094 252.9375 143.09375 249.292969 138.59375 249.292969 L 81.535156 249.292969 C 45.523438 249.292969 16.328125 220.113281 16.328125 184.125 C 16.328125 148.136719 45.523438 118.957031 81.535156 118.957031 C 89.457031 118.957031 97.027344 120.367188 104.027344 122.9375 C 106.335938 123.785156 108.902344 123.546875 111.011719 122.289062 C 113.121094 121.03125 114.554688 118.890625 114.90625 116.460938 Z M 242.171875 186.511719 L 193.265625 137.636719 C 190.082031 134.453125 184.917969 134.453125 181.734375 137.636719 L 132.832031 186.511719 C 129.648438 189.691406 129.648438 194.851562 132.832031 198.03125 C 136.011719 201.210938 141.175781 201.210938 144.355469 198.03125 L 179.347656 163.0625 L 179.347656 322.605469 C 179.347656 327.101562 183 330.75 187.5 330.75 C 192 330.75 195.652344 327.101562 195.652344 322.605469 L 195.652344 163.0625 L 230.640625 198.03125 C 233.824219 201.210938 238.988281 201.210938 242.171875 198.03125 C 245.351562 194.851562 245.351562 189.691406 242.171875 186.511719 Z M 242.171875 186.511719 " fill-opacity="1" fill-rule="evenodd"/></g></svg>