<svg xmlns="http://www.w3.org/2000/svg" xmlns:xlink="http://www.w3.org/1999/xlink" width="500" zoomAndPan="magnify" viewBox="0 0 375 374.999991" height="500" preserveAspectRatio="xMidYMid meet" version="1.0"><defs><clipPath id="ecebce5486"><path d="M 0 22.984375 L 375 22.984375 L 375 352.234375 L 0 352.234375 Z M 0 22.984375 " clip-rule="nonzero"/></clipPath></defs><g clip-path="url(#ecebce5486)"><path fill="#ebebeb" d="M 191.273438 -127.742188 C 358.75 -127.742188 495.773438 9.28125 495.773438 176.757812 C 495.773438 344.234375 358.75 481.257812 191.273438 481.257812 C 23.796875 481.257812 -113.226562 344.234375 -113.226562 176.757812 C -113.226562 9.28125 23.796875 -127.742188 191.273438 -127.742188 Z M 191.273438 -94.015625 C 42.347656 -94.015625 -79.496094 27.832031 -79.496094 176.757812 C -79.496094 325.683594 42.347656 447.53125 191.273438 447.53125 C 340.199219 447.53125 462.046875 325.683594 462.046875 176.757812 C 462.046875 27.832031 340.199219 -94.015625 191.273438 -94.015625 " fill-opacity="1" fill-rule="evenodd"/></g><path fill="#ebebeb" d="M 129.75 223.445312 L 305.152344 48.042969 C 320.25 32.941406 344.742188 32.941406 359.839844 48.042969 C 374.9375 63.136719 374.9375 87.628906 359.839844 102.726562 L 157.292969 305.273438 C 157.226562 305.339844 157.160156 305.410156 157.09375 305.472656 C 141.996094 320.574219 117.5 320.574219 102.40625 305.472656 L 95.113281 298.179688 L 95.117188 298.179688 L 22.707031 225.777344 C 7.609375 210.675781 7.609375 186.1875 22.707031 171.089844 C 37.808594 155.992188 62.296875 155.992188 77.394531 171.089844 L 129.75 223.445312 " fill-opacity="1" fill-rule="evenodd"/></svg>