<svg xmlns="http://www.w3.org/2000/svg" xmlns:xlink="http://www.w3.org/1999/xlink" width="500" zoomAndPan="magnify" viewBox="0 0 375 374.999991" height="500" preserveAspectRatio="xMidYMid meet" version="1.0"><defs><clipPath id="f697465126"><path d="M 112.5 124.6875 L 262.5 124.6875 L 262.5 150 L 112.5 150 Z M 112.5 124.6875 " clip-rule="nonzero"/></clipPath><clipPath id="b4acc7819d"><path d="M 112.5 175 L 262.5 175 L 262.5 200 L 112.5 200 Z M 112.5 175 " clip-rule="nonzero"/></clipPath><clipPath id="3ff799ef9d"><path d="M 112.5 226 L 262.5 226 L 262.5 250.6875 L 112.5 250.6875 Z M 112.5 226 " clip-rule="nonzero"/></clipPath></defs><g clip-path="url(#f697465126)"><path fill="#191e2e" d="M 250.289062 149.199219 L 124.710938 149.199219 C 117.964844 149.199219 112.5 143.71875 112.5 136.957031 C 112.5 130.191406 117.964844 124.710938 124.710938 124.710938 L 250.289062 124.710938 C 257.035156 124.710938 262.5 130.191406 262.5 136.957031 C 262.5 143.71875 257.035156 149.199219 250.289062 149.199219 Z M 250.289062 149.199219 " fill-opacity="1" fill-rule="nonzero"/></g><g clip-path="url(#b4acc7819d)"><path fill="#191e2e" d="M 250.289062 199.933594 L 124.710938 199.933594 C 117.964844 199.933594 112.5 194.449219 112.5 187.6875 C 112.5 180.925781 117.964844 175.441406 124.710938 175.441406 L 250.289062 175.441406 C 257.035156 175.441406 262.5 180.925781 262.5 187.6875 C 262.5 194.449219 257.035156 199.933594 250.289062 199.933594 Z M 250.289062 199.933594 " fill-opacity="1" fill-rule="nonzero"/></g><g clip-path="url(#3ff799ef9d)"><path fill="#191e2e" d="M 250.289062 250.664062 L 124.710938 250.664062 C 117.964844 250.664062 112.5 245.183594 112.5 238.417969 C 112.5 231.65625 117.964844 226.175781 124.710938 226.175781 L 250.289062 226.175781 C 257.035156 226.175781 262.5 231.65625 262.5 238.417969 C 262.5 245.183594 257.035156 250.664062 250.289062 250.664062 Z M 250.289062 250.664062 " fill-opacity="1" fill-rule="nonzero"/></g></svg>