<svg xmlns="http://www.w3.org/2000/svg" xmlns:xlink="http://www.w3.org/1999/xlink" width="500" zoomAndPan="magnify" viewBox="0 0 375 374.999991" height="500" preserveAspectRatio="xMidYMid meet" version="1.0"><defs><clipPath id="66362e02eb"><path d="M 112.5 118.40625 L 262.5 118.40625 L 262.5 256.40625 L 112.5 256.40625 Z M 112.5 118.40625 " clip-rule="nonzero"/></clipPath></defs><g clip-path="url(#66362e02eb)"><path fill="#ebebeb" d="M 259.335938 155.605469 L 249.027344 155.605469 L 249.027344 154.277344 C 249.027344 153.445312 248.695312 152.617188 248.03125 152.117188 C 245.367188 149.792969 241.710938 148.132812 237.222656 146.96875 L 243.042969 132.023438 C 244.039062 129.53125 243.871094 126.875 242.875 124.550781 C 241.878906 122.226562 239.882812 120.398438 237.386719 119.402344 C 234.894531 118.40625 232.230469 118.574219 229.902344 119.570312 C 227.410156 120.566406 225.582031 122.558594 224.75 125.050781 L 216.433594 146.304688 C 205.792969 147.300781 193.820312 150.789062 187.5 156.433594 C 180.847656 150.621094 168.210938 147.300781 158.566406 146.304688 C 151.914062 145.640625 135.617188 144.644531 127.136719 152.285156 C 126.472656 152.617188 125.972656 153.445312 125.972656 154.277344 L 125.972656 155.4375 L 115.664062 155.4375 C 114 155.4375 112.667969 156.765625 112.667969 158.429688 L 112.667969 248.269531 C 112.667969 249.265625 113.167969 250.097656 114 250.761719 C 114.832031 251.257812 115.828125 251.425781 116.660156 251.09375 C 127.636719 246.609375 147.089844 243.121094 160.0625 243.453125 C 166.714844 243.621094 172.535156 246.441406 178.519531 252.585938 C 181.015625 255.078125 184.007812 256.40625 187.5 256.40625 C 190.992188 256.40625 193.984375 255.078125 196.480469 252.585938 C 202.464844 246.609375 208.285156 243.621094 214.9375 243.453125 C 227.910156 243.121094 247.363281 246.609375 258.339844 251.09375 C 259.171875 251.425781 260.335938 251.425781 261 250.761719 C 261.832031 250.261719 262.332031 249.265625 262.332031 248.269531 L 262.332031 158.429688 C 262.332031 156.765625 261 155.605469 259.335938 155.605469 Z M 210.78125 176.527344 L 218.265625 179.351562 L 217.433594 181.675781 L 210.449219 188.652344 L 209.949219 178.855469 Z M 220.425781 174.039062 L 212.941406 171.214844 L 225.414062 139.332031 L 232.898438 142.152344 Z M 230.070312 127.042969 C 230.402344 126.046875 231.234375 125.214844 232.230469 124.882812 C 233.230469 124.382812 234.226562 124.382812 235.226562 124.882812 C 236.222656 125.214844 237.054688 126.046875 237.386719 127.042969 C 237.886719 128.039062 237.886719 129.035156 237.386719 130.03125 L 234.726562 136.671875 L 227.242188 133.851562 Z M 213.941406 152.449219 L 206.457031 171.714844 L 204.296875 177.191406 C 204.128906 177.523438 204.128906 178.023438 204.128906 178.355469 L 204.960938 195.460938 C 204.960938 196.621094 205.792969 197.621094 206.789062 198.117188 C 207.121094 198.285156 207.453125 198.285156 207.789062 198.285156 C 208.617188 198.285156 209.285156 197.953125 209.78125 197.453125 L 221.921875 185.496094 C 222.253906 185.164062 222.421875 184.832031 222.585938 184.5 L 224.75 179.019531 L 235.058594 152.78125 C 238.386719 153.445312 241.210938 154.609375 243.207031 155.9375 L 243.207031 227.34375 C 234.226562 223.191406 222.089844 223.859375 216.601562 224.523438 C 208.121094 225.351562 197.476562 227.84375 190.492188 232.328125 L 190.492188 161.75 C 193.984375 157.597656 203.464844 153.945312 213.941406 152.449219 Z M 131.792969 155.769531 C 136.949219 152.285156 146.59375 150.789062 157.734375 151.953125 C 169.539062 153.28125 180.347656 157.265625 184.339844 161.582031 L 184.339844 232.328125 C 177.355469 227.84375 166.714844 225.1875 158.234375 224.355469 C 152.746094 223.691406 140.441406 223.027344 131.625 227.179688 L 131.625 155.769531 Z M 256.511719 244.117188 C 244.539062 239.964844 227.242188 237.144531 214.773438 237.476562 C 206.789062 237.640625 199.304688 241.128906 192.324219 248.269531 C 190.992188 249.597656 189.328125 250.261719 187.5 250.261719 C 185.671875 250.261719 184.007812 249.597656 182.675781 248.269531 C 175.691406 241.292969 168.375 237.640625 160.226562 237.476562 C 147.757812 237.144531 130.460938 239.964844 118.488281 244.117188 L 118.488281 161.417969 L 125.972656 161.417969 L 125.972656 232.492188 C 125.972656 233.65625 126.636719 234.652344 127.636719 235.148438 C 128.632812 235.648438 129.964844 235.480469 130.792969 234.652344 C 135.617188 230.5 145.59375 228.839844 157.734375 230.167969 C 170.039062 231.496094 181.511719 235.8125 185.003906 240.464844 C 185.003906 240.464844 185.171875 240.628906 185.171875 240.628906 C 185.171875 240.628906 185.339844 240.796875 185.339844 240.796875 C 185.339844 240.796875 185.503906 240.960938 185.671875 240.960938 C 185.671875 240.960938 185.835938 241.128906 185.835938 241.128906 C 185.835938 241.128906 186.003906 241.128906 186.003906 241.292969 C 186.003906 241.292969 186.003906 241.292969 186.167969 241.292969 C 186.167969 241.292969 186.335938 241.292969 186.335938 241.292969 C 186.335938 241.292969 186.335938 241.292969 186.503906 241.292969 C 186.503906 241.292969 186.667969 241.292969 186.667969 241.292969 C 186.667969 241.292969 186.667969 241.292969 186.835938 241.292969 C 187 241.292969 187 241.292969 187.167969 241.292969 C 187.332031 241.292969 187.332031 241.292969 187.5 241.292969 C 187.5 241.292969 187.5 241.292969 187.667969 241.292969 C 187.667969 241.292969 187.832031 241.292969 187.832031 241.292969 C 187.832031 241.292969 187.832031 241.292969 188 241.292969 C 188 241.292969 188.164062 241.292969 188.164062 241.292969 C 188.164062 241.292969 188.164062 241.292969 188.332031 241.292969 C 188.332031 241.292969 188.496094 241.292969 188.496094 241.128906 C 188.496094 241.128906 188.664062 240.960938 188.664062 240.960938 C 188.832031 240.960938 188.832031 240.796875 188.996094 240.796875 C 188.996094 240.796875 189.164062 240.628906 189.164062 240.628906 C 189.164062 240.628906 189.328125 240.464844 189.328125 240.464844 C 192.820312 235.8125 204.296875 231.496094 216.601562 230.167969 C 228.574219 228.839844 238.882812 230.667969 243.539062 234.652344 C 244.371094 235.480469 245.703125 235.648438 246.699219 235.148438 C 247.695312 234.652344 248.363281 233.65625 248.363281 232.492188 L 248.363281 161.417969 L 255.84375 161.417969 L 255.84375 244.117188 Z M 256.511719 244.117188 " fill-opacity="1" fill-rule="nonzero"/></g><path fill="#ebebeb" d="M 160.894531 166.398438 C 166.214844 167.230469 170.703125 168.558594 173.367188 170.21875 C 173.863281 170.550781 174.363281 170.714844 174.863281 170.714844 C 175.859375 170.714844 176.855469 170.21875 177.355469 169.386719 C 178.1875 168.058594 177.6875 166.234375 176.359375 165.402344 C 172.867188 163.242188 167.710938 161.75 161.558594 160.753906 C 159.894531 160.585938 158.398438 161.582031 158.234375 163.242188 C 158.234375 164.738281 159.230469 166.234375 160.894531 166.398438 Z M 160.894531 166.398438 " fill-opacity="1" fill-rule="nonzero"/><path fill="#ebebeb" d="M 141.269531 166.898438 C 141.4375 166.898438 141.769531 166.898438 141.9375 166.730469 C 144.265625 166.234375 146.925781 165.734375 149.753906 165.734375 C 151.414062 165.734375 152.578125 164.238281 152.578125 162.746094 C 152.578125 161.25 151.082031 159.921875 149.585938 159.921875 C 146.261719 160.089844 143.265625 160.421875 140.605469 161.085938 C 139.109375 161.417969 138.113281 163.078125 138.445312 164.574219 C 138.777344 166.066406 139.941406 166.898438 141.269531 166.898438 Z M 141.269531 166.898438 " fill-opacity="1" fill-rule="nonzero"/><path fill="#ebebeb" d="M 140.605469 173.707031 C 139.109375 174.039062 138.113281 175.699219 138.445312 177.191406 C 138.777344 178.523438 139.941406 179.351562 141.269531 179.351562 C 141.4375 179.351562 141.769531 179.351562 141.9375 179.1875 C 146.09375 178.191406 151.582031 177.859375 157.234375 178.355469 C 158.898438 178.523438 160.226562 177.359375 160.394531 175.699219 C 160.5625 174.039062 159.398438 172.710938 157.734375 172.542969 C 151.414062 172.210938 145.429688 172.542969 140.605469 173.707031 Z M 140.605469 173.707031 " fill-opacity="1" fill-rule="nonzero"/><path fill="#ebebeb" d="M 173.367188 182.839844 C 173.863281 183.171875 174.363281 183.335938 174.863281 183.335938 C 175.859375 183.335938 176.855469 182.839844 177.355469 182.007812 C 178.1875 180.679688 177.6875 178.855469 176.359375 178.023438 C 174.53125 177.027344 172.367188 176.03125 169.707031 175.199219 C 168.210938 174.703125 166.546875 175.53125 166.046875 177.191406 C 165.550781 178.6875 166.382812 180.347656 168.042969 180.847656 C 170.371094 181.179688 172.035156 182.007812 173.367188 182.839844 Z M 173.367188 182.839844 " fill-opacity="1" fill-rule="nonzero"/><path fill="#ebebeb" d="M 176.523438 190.3125 C 168.375 185.332031 151.582031 183.503906 140.605469 186.328125 C 139.109375 186.660156 138.113281 188.320312 138.445312 189.8125 C 138.777344 191.308594 140.441406 192.304688 141.9375 191.972656 C 151.414062 189.648438 166.546875 191.308594 173.367188 195.292969 C 173.863281 195.625 174.363281 195.792969 174.863281 195.792969 C 175.859375 195.792969 176.855469 195.292969 177.355469 194.464844 C 178.355469 192.96875 177.855469 191.144531 176.523438 190.3125 Z M 176.523438 190.3125 " fill-opacity="1" fill-rule="nonzero"/><path fill="#ebebeb" d="M 141.269531 204.59375 C 141.4375 204.59375 141.769531 204.59375 141.9375 204.429688 C 143.101562 204.097656 144.429688 203.929688 145.761719 203.761719 C 147.425781 203.597656 148.421875 202.101562 148.253906 200.441406 C 148.089844 198.78125 146.59375 197.785156 144.929688 197.953125 C 143.265625 198.117188 141.769531 198.449219 140.441406 198.78125 C 138.941406 199.113281 137.945312 200.773438 138.277344 202.269531 C 138.777344 203.597656 139.941406 204.59375 141.269531 204.59375 Z M 141.269531 204.59375 " fill-opacity="1" fill-rule="nonzero"/><path fill="#ebebeb" d="M 176.523438 202.765625 C 172.367188 200.277344 165.550781 198.449219 158.066406 197.785156 C 156.402344 197.621094 155.074219 198.78125 154.90625 200.441406 C 154.742188 202.101562 155.90625 203.429688 157.566406 203.597656 C 164.21875 204.261719 170.207031 205.757812 173.53125 207.75 C 174.03125 208.082031 174.53125 208.246094 175.027344 208.246094 C 176.027344 208.246094 177.023438 207.75 177.523438 206.917969 C 178.355469 205.425781 177.855469 203.597656 176.523438 202.765625 Z M 176.523438 202.765625 " fill-opacity="1" fill-rule="nonzero"/><path fill="#ebebeb" d="M 176.523438 215.386719 C 168.375 210.40625 151.582031 208.578125 140.605469 211.402344 C 139.109375 211.734375 138.113281 213.394531 138.445312 214.890625 C 138.777344 216.382812 140.441406 217.382812 141.9375 217.050781 C 151.414062 214.722656 166.546875 216.382812 173.367188 220.371094 C 173.863281 220.703125 174.363281 220.867188 174.863281 220.867188 C 175.859375 220.867188 176.855469 220.371094 177.355469 219.539062 C 178.355469 218.046875 177.855469 216.21875 176.523438 215.386719 Z M 176.523438 215.386719 " fill-opacity="1" fill-rule="nonzero"/></svg>