<svg xmlns="http://www.w3.org/2000/svg" xmlns:xlink="http://www.w3.org/1999/xlink" width="500" zoomAndPan="magnify" viewBox="0 0 375 374.999991" height="500" preserveAspectRatio="xMidYMid meet" version="1.0"><defs><clipPath id="ab6ad0dc1c"><path d="M 155.609375 73.25 L 219.390625 73.25 L 219.390625 137.03125 L 155.609375 137.03125 Z M 155.609375 73.25 " clip-rule="nonzero"/></clipPath><clipPath id="598e73c4a2"><path d="M 187.5 73.25 C 169.886719 73.25 155.609375 87.527344 155.609375 105.140625 C 155.609375 122.753906 169.886719 137.03125 187.5 137.03125 C 205.113281 137.03125 219.390625 122.753906 219.390625 105.140625 C 219.390625 87.527344 205.113281 73.25 187.5 73.25 " clip-rule="nonzero"/></clipPath><clipPath id="f926e2085b"><path d="M 155.609375 155.4375 L 219.390625 155.4375 L 219.390625 219.214844 L 155.609375 219.214844 Z M 155.609375 155.4375 " clip-rule="nonzero"/></clipPath><clipPath id="22f200c08a"><path d="M 187.5 155.4375 C 169.886719 155.4375 155.609375 169.714844 155.609375 187.324219 C 155.609375 204.9375 169.886719 219.214844 187.5 219.214844 C 205.113281 219.214844 219.390625 204.9375 219.390625 187.324219 C 219.390625 169.714844 205.113281 155.4375 187.5 155.4375 " clip-rule="nonzero"/></clipPath><clipPath id="1b3bc84fc9"><path d="M 155.609375 237.96875 L 219.390625 237.96875 L 219.390625 301.75 L 155.609375 301.75 Z M 155.609375 237.96875 " clip-rule="nonzero"/></clipPath><clipPath id="8525b91e41"><path d="M 187.5 237.96875 C 169.886719 237.96875 155.609375 252.246094 155.609375 269.859375 C 155.609375 287.472656 169.886719 301.75 187.5 301.75 C 205.113281 301.75 219.390625 287.472656 219.390625 269.859375 C 219.390625 252.246094 205.113281 237.96875 187.5 237.96875 " clip-rule="nonzero"/></clipPath></defs><g clip-path="url(#ab6ad0dc1c)"><g clip-path="url(#598e73c4a2)"><path fill="#ebebeb" d="M 155.609375 73.25 L 219.390625 73.25 L 219.390625 137.03125 L 155.609375 137.03125 Z M 155.609375 73.25 " fill-opacity="1" fill-rule="nonzero"/></g></g><g clip-path="url(#f926e2085b)"><g clip-path="url(#22f200c08a)"><path fill="#ebebeb" d="M 155.609375 155.4375 L 219.390625 155.4375 L 219.390625 219.214844 L 155.609375 219.214844 Z M 155.609375 155.4375 " fill-opacity="1" fill-rule="nonzero"/></g></g><g clip-path="url(#1b3bc84fc9)"><g clip-path="url(#8525b91e41)"><path fill="#ebebeb" d="M 155.609375 237.96875 L 219.390625 237.96875 L 219.390625 301.75 L 155.609375 301.75 Z M 155.609375 237.96875 " fill-opacity="1" fill-rule="nonzero"/></g></g></svg>