<svg xmlns="http://www.w3.org/2000/svg" xmlns:xlink="http://www.w3.org/1999/xlink" width="500" zoomAndPan="magnify" viewBox="0 0 375 374.999991" height="500" preserveAspectRatio="xMidYMid meet" version="1.0"><defs><clipPath id="6d9ad5f0c4"><path d="M 112.5 131.25 L 262.5 131.25 L 262.5 243.75 L 112.5 243.75 Z M 112.5 131.25 " clip-rule="nonzero"/></clipPath></defs><g clip-path="url(#6d9ad5f0c4)"><path fill="#ebebeb" d="M 262.496094 131.25 L 262.496094 227.351562 C 262.496094 236.703125 255.652344 243.75 247.09375 243.75 L 132.878906 243.75 C 118.75 243.75 112.5 237.695312 112.5 219.789062 L 112.5 150.753906 L 132.28125 150.753906 L 132.28125 131.253906 L 262.492188 131.253906 Z M 132.285156 160.1875 L 121.9375 160.1875 L 121.9375 219.789062 C 121.9375 228.941406 124.128906 233.316406 126.914062 233.316406 C 130.296875 233.316406 132.285156 228.941406 132.285156 219.789062 Z M 253.0625 140.6875 L 141.71875 140.6875 L 141.71875 219.785156 C 141.71875 226.152344 140.523438 230.730469 138.734375 234.3125 L 247.097656 234.3125 C 250.679688 234.3125 253.066406 230.132812 253.066406 227.347656 Z M 185.410156 179.800781 L 157.796875 179.800781 L 157.796875 176.21875 L 185.410156 176.21875 Z M 185.410156 191.542969 L 157.796875 191.542969 L 157.796875 187.960938 L 185.410156 187.960938 Z M 185.410156 202.882812 L 157.796875 202.882812 L 157.796875 199.300781 L 185.410156 199.300781 Z M 185.410156 213.828125 L 157.796875 213.828125 L 157.796875 210.246094 L 185.410156 210.246094 Z M 163.921875 157.714844 L 230.179688 157.714844 L 230.179688 164.351562 L 163.921875 164.351562 Z M 195.359375 176.21875 L 237.742188 176.21875 L 237.742188 210.0625 L 195.359375 210.0625 Z M 195.359375 176.21875 " fill-opacity="1" fill-rule="nonzero"/></g></svg>