<svg xmlns="http://www.w3.org/2000/svg" xmlns:xlink="http://www.w3.org/1999/xlink" width="500" zoomAndPan="magnify" viewBox="0 0 375 374.999991" height="500" preserveAspectRatio="xMidYMid meet" version="1.0"><defs><clipPath id="8cc3593e91"><path d="M 174.695312 238 L 200.472656 238 L 200.472656 248.773438 L 174.695312 248.773438 Z M 174.695312 238 " clip-rule="nonzero"/></clipPath><clipPath id="26c6f5a27d"><path d="M 175 126.5625 L 200 126.5625 L 200 140 L 175 140 Z M 175 126.5625 " clip-rule="nonzero"/></clipPath><clipPath id="c53f1a2050"><path d="M 112.5 152 L 130 152 L 130 212 L 112.5 212 Z M 112.5 152 " clip-rule="nonzero"/></clipPath><clipPath id="30de3cf535"><path d="M 246.699219 153.289062 L 262.5 153.289062 L 262.5 208 L 246.699219 208 Z M 246.699219 153.289062 " clip-rule="nonzero"/></clipPath></defs><g clip-path="url(#8cc3593e91)"><path fill="#ebebeb" d="M 195.796875 238.003906 L 174.933594 238.003906 C 175.960938 244.109375 181.265625 248.773438 187.640625 248.773438 C 194.011719 248.773438 199.316406 244.109375 200.347656 238.003906 L 195.796875 238.003906 " fill-opacity="1" fill-rule="nonzero"/></g><g clip-path="url(#26c6f5a27d)"><path fill="#ebebeb" d="M 180.160156 137.867188 C 182.582031 137.367188 185.082031 137.101562 187.640625 137.101562 C 190.195312 137.101562 192.695312 137.367188 195.117188 137.867188 C 195.898438 138.027344 196.667969 138.210938 197.429688 138.417969 C 198.195312 138.628906 198.949219 138.867188 199.695312 139.121094 C 199.554688 132.1875 194.203125 126.59375 187.640625 126.59375 C 181.074219 126.59375 175.722656 132.1875 175.585938 139.121094 C 176.328125 138.867188 177.082031 138.628906 177.847656 138.417969 C 178.609375 138.210938 179.378906 138.027344 180.160156 137.867188 " fill-opacity="1" fill-rule="nonzero"/></g><path fill="#ebebeb" d="M 232.40625 221.148438 C 229.457031 218.355469 226.40625 215.46875 223.953125 211.496094 C 219.980469 205.054688 222.4375 181.328125 222.507812 180.660156 L 222.484375 180.476562 L 222.488281 180.28125 C 222.503906 179.847656 222.511719 179.445312 222.511719 179.050781 C 222.511719 162.84375 212.890625 149.007812 199.46875 143.789062 C 198.742188 143.507812 198.007812 143.25 197.261719 143.019531 C 196.53125 142.796875 195.792969 142.59375 195.042969 142.421875 C 192.65625 141.863281 190.179688 141.566406 187.640625 141.566406 C 185.097656 141.566406 182.621094 141.863281 180.234375 142.421875 C 179.484375 142.59375 178.746094 142.796875 178.015625 143.019531 C 177.269531 143.25 176.535156 143.507812 175.8125 143.789062 C 162.386719 149.007812 152.765625 162.84375 152.765625 179.050781 C 152.765625 179.445312 152.773438 179.847656 152.789062 180.28125 L 152.792969 180.476562 L 152.769531 180.660156 C 152.84375 181.367188 155.292969 205.0625 151.324219 211.496094 C 148.871094 215.46875 145.820312 218.355469 142.871094 221.148438 C 141.40625 222.535156 139.722656 225.289062 138.585938 228.15625 C 137.464844 230.988281 137.296875 232.808594 137.398438 233.539062 L 238.109375 233.539062 C 238.238281 232.890625 238.089844 231.074219 236.855469 228.152344 C 235.660156 225.328125 233.914062 222.578125 232.40625 221.148438 " fill-opacity="1" fill-rule="nonzero"/><path fill="#ebebeb" d="M 139.6875 200.660156 C 141.339844 199.480469 141.722656 197.179688 140.546875 195.523438 C 137.554688 191.308594 135.972656 186.335938 135.972656 181.140625 C 135.972656 176.1875 137.421875 171.40625 140.164062 167.3125 C 141.292969 165.625 140.847656 163.335938 139.164062 162.203125 C 137.480469 161.066406 135.199219 161.515625 134.066406 163.203125 C 130.507812 168.511719 128.625 174.71875 128.625 181.140625 C 128.625 187.878906 130.679688 194.328125 134.5625 199.796875 C 135.28125 200.808594 136.410156 201.34375 137.558594 201.34375 C 138.296875 201.34375 139.039062 201.121094 139.6875 200.660156 " fill-opacity="1" fill-rule="nonzero"/><g clip-path="url(#c53f1a2050)"><path fill="#ebebeb" d="M 121.402344 181.140625 C 121.402344 173.5 123.582031 166.09375 127.703125 159.71875 C 129.039062 157.648438 128.453125 154.882812 126.390625 153.542969 C 124.324219 152.199219 121.570312 152.789062 120.230469 154.859375 C 115.171875 162.6875 112.5 171.773438 112.5 181.140625 C 112.5 191.449219 115.6875 201.289062 121.71875 209.597656 C 122.59375 210.796875 123.949219 211.433594 125.324219 211.433594 C 126.230469 211.433594 127.148438 211.152344 127.941406 210.578125 C 129.925781 209.125 130.363281 206.332031 128.917969 204.335938 C 124.003906 197.566406 121.402344 189.546875 121.402344 181.140625 " fill-opacity="1" fill-rule="nonzero"/></g><path fill="#ebebeb" d="M 235.570312 161.863281 C 233.902344 163.023438 233.492188 165.320312 234.644531 166.992188 C 237.523438 171.148438 239.042969 176.035156 239.042969 181.117188 C 239.042969 186.054688 237.601562 190.824219 234.878906 194.90625 C 233.746094 196.597656 234.199219 198.882812 235.886719 200.015625 C 236.511719 200.4375 237.222656 200.640625 237.925781 200.640625 C 239.109375 200.640625 240.269531 200.066406 240.980469 199.003906 C 244.519531 193.707031 246.386719 187.519531 246.386719 181.117188 C 246.386719 174.527344 244.414062 168.1875 240.683594 162.792969 C 239.527344 161.121094 237.238281 160.707031 235.570312 161.863281 " fill-opacity="1" fill-rule="nonzero"/><g clip-path="url(#30de3cf535)"><path fill="#ebebeb" d="M 255.203125 155.5 C 253.898438 153.410156 251.152344 152.773438 249.066406 154.082031 C 246.984375 155.390625 246.351562 158.144531 247.652344 160.238281 C 251.550781 166.484375 253.609375 173.707031 253.609375 181.117188 C 253.609375 188.164062 251.734375 195.082031 248.191406 201.113281 C 246.945312 203.238281 247.648438 205.976562 249.765625 207.226562 C 250.476562 207.648438 251.253906 207.847656 252.023438 207.847656 C 253.546875 207.847656 255.03125 207.058594 255.863281 205.648438 C 260.214844 198.242188 262.515625 189.757812 262.515625 181.117188 C 262.515625 172.027344 259.984375 163.171875 255.203125 155.5 " fill-opacity="1" fill-rule="nonzero"/></g></svg>