<svg xmlns="http://www.w3.org/2000/svg" xmlns:xlink="http://www.w3.org/1999/xlink" width="500" zoomAndPan="magnify" viewBox="0 0 375 374.999991" height="500" preserveAspectRatio="xMidYMid meet" version="1.0"><defs><clipPath id="ab9d969f3a"><path d="M 112.5 112.5 L 262 112.5 L 262 262 L 112.5 262 Z M 112.5 112.5 " clip-rule="nonzero"/></clipPath></defs><g clip-path="url(#ab9d969f3a)"><path fill="#191e2e" d="M 208.914062 222.1875 L 245.652344 258.914062 C 249.289062 262.550781 255.195312 262.550781 258.835938 258.910156 C 262.472656 255.273438 262.46875 249.367188 258.832031 245.726562 L 222.117188 209.027344 C 229.503906 198.980469 233.867188 186.574219 233.867188 173.15625 C 233.867188 139.679688 206.691406 112.5 173.210938 112.5 C 139.734375 112.5 112.554688 139.679688 112.554688 173.15625 C 112.554688 206.632812 139.734375 233.8125 173.210938 233.8125 C 186.554688 233.8125 198.894531 229.496094 208.914062 222.1875 Z M 173.210938 131.144531 C 196.402344 131.144531 215.226562 149.96875 215.226562 173.15625 C 215.226562 196.34375 196.402344 215.171875 173.210938 215.171875 C 150.023438 215.171875 131.199219 196.34375 131.199219 173.15625 C 131.199219 149.96875 150.023438 131.144531 173.210938 131.144531 Z M 173.210938 131.144531 " fill-opacity="1" fill-rule="evenodd"/></g></svg>