<svg xmlns="http://www.w3.org/2000/svg" xmlns:xlink="http://www.w3.org/1999/xlink" width="500" zoomAndPan="magnify" viewBox="0 0 375 374.999991" height="500" preserveAspectRatio="xMidYMid meet" version="1.0"><defs><clipPath id="dd7bdde10c"><path d="M 112.5 128.8125 L 262.5 128.8125 L 262.5 246.5625 L 112.5 246.5625 Z M 112.5 128.8125 " clip-rule="nonzero"/></clipPath></defs><g clip-path="url(#dd7bdde10c)"><path fill="#f0f4ef" d="M 158.460938 160.519531 C 160.523438 146.285156 172.742188 135.355469 187.5 135.355469 C 202.257812 135.355469 214.476562 146.285156 216.539062 160.519531 C 216.679688 161.492188 217.25 162.355469 218.09375 162.859375 C 218.941406 163.363281 219.964844 163.457031 220.886719 163.117188 C 223.6875 162.085938 226.71875 161.519531 229.886719 161.519531 C 244.289062 161.519531 255.96875 173.234375 255.96875 187.6875 C 255.96875 202.140625 244.289062 213.855469 229.886719 213.855469 L 207.0625 213.855469 C 205.261719 213.855469 203.800781 215.320312 203.800781 217.125 C 203.800781 218.929688 205.261719 220.394531 207.0625 220.394531 L 229.886719 220.394531 C 247.890625 220.394531 262.488281 205.75 262.488281 187.6875 C 262.488281 169.625 247.890625 154.980469 229.886719 154.980469 C 227.261719 154.980469 224.707031 155.289062 222.253906 155.878906 C 218.300781 140.320312 204.242188 128.8125 187.5 128.8125 C 170.757812 128.8125 156.699219 140.320312 152.746094 155.878906 C 150.292969 155.289062 147.738281 154.980469 145.113281 154.980469 C 127.109375 154.980469 112.511719 169.625 112.511719 187.6875 C 112.511719 205.75 127.109375 220.394531 145.113281 220.394531 L 167.9375 220.394531 C 169.738281 220.394531 171.199219 218.929688 171.199219 217.125 C 171.199219 215.320312 169.738281 213.855469 167.9375 213.855469 L 145.113281 213.855469 C 130.710938 213.855469 119.03125 202.140625 119.03125 187.6875 C 119.03125 173.234375 130.710938 161.519531 145.113281 161.519531 C 148.28125 161.519531 151.3125 162.085938 154.113281 163.117188 C 155.035156 163.457031 156.058594 163.363281 156.90625 162.859375 C 157.75 162.355469 158.320312 161.492188 158.460938 160.519531 Z M 209.367188 188.644531 L 189.804688 169.019531 C 188.53125 167.742188 186.46875 167.742188 185.195312 169.019531 L 165.632812 188.644531 C 164.359375 189.921875 164.359375 191.992188 165.632812 193.269531 C 166.90625 194.546875 168.96875 194.546875 170.242188 193.269531 L 184.238281 179.230469 L 184.238281 243.292969 C 184.238281 245.097656 185.699219 246.5625 187.5 246.5625 C 189.300781 246.5625 190.761719 245.097656 190.761719 243.292969 L 190.761719 179.230469 L 204.757812 193.269531 C 206.03125 194.546875 208.09375 194.546875 209.367188 193.269531 C 210.640625 191.992188 210.640625 189.921875 209.367188 188.644531 Z M 209.367188 188.644531 " fill-opacity="1" fill-rule="evenodd"/></g></svg>