<svg xmlns="http://www.w3.org/2000/svg" xmlns:xlink="http://www.w3.org/1999/xlink" width="500" zoomAndPan="magnify" viewBox="0 0 375 374.999991" height="500" preserveAspectRatio="xMidYMid meet" version="1.0"><defs><clipPath id="f09407e9ac"><path d="M 130.265625 109.699219 L 257.765625 109.699219 L 257.765625 221.449219 L 130.265625 221.449219 Z M 130.265625 109.699219 " clip-rule="nonzero"/></clipPath></defs><g clip-path="url(#f09407e9ac)"><path fill="#ebebeb" d="M 195.300781 58.492188 C 252.226562 58.492188 298.800781 105.066406 298.800781 161.992188 C 298.800781 218.917969 252.226562 265.492188 195.300781 265.492188 C 138.375 265.492188 91.800781 218.917969 91.800781 161.992188 C 91.800781 105.066406 138.375 58.492188 195.300781 58.492188 Z M 195.300781 69.957031 C 144.679688 69.957031 103.265625 111.371094 103.265625 161.992188 C 103.265625 212.613281 144.679688 254.027344 195.300781 254.027344 C 245.921875 254.027344 287.335938 212.613281 287.335938 161.992188 C 287.335938 111.371094 245.921875 69.957031 195.300781 69.957031 " fill-opacity="1" fill-rule="evenodd"/></g><path fill="#ebebeb" d="M 174.386719 177.859375 L 234.007812 118.242188 C 239.140625 113.109375 247.464844 113.109375 252.597656 118.242188 C 257.726562 123.371094 257.726562 131.695312 252.597656 136.828125 L 183.75 205.675781 C 183.726562 205.699219 183.707031 205.722656 183.683594 205.742188 C 178.550781 210.875 170.226562 210.875 165.09375 205.742188 L 162.613281 203.265625 L 162.617188 203.265625 L 138.003906 178.652344 C 132.871094 173.519531 132.871094 165.195312 138.003906 160.066406 C 143.136719 154.933594 151.460938 154.933594 156.59375 160.066406 L 174.386719 177.859375 " fill-opacity="1" fill-rule="evenodd"/></svg>