<svg xmlns="http://www.w3.org/2000/svg" xmlns:xlink="http://www.w3.org/1999/xlink" width="500" zoomAndPan="magnify" viewBox="0 0 375 374.999991" height="500" preserveAspectRatio="xMidYMid meet" version="1.0"><defs><clipPath id="b8d5ef99f5"><path d="M 112.5 112.5 L 262.5 112.5 L 262.5 262.5 L 112.5 262.5 Z M 112.5 112.5 " clip-rule="nonzero"/></clipPath></defs><g clip-path="url(#b8d5ef99f5)"><path fill="#ebebeb" d="M 243.75 215.625 L 243.75 243.75 L 131.25 243.75 L 131.25 215.625 L 112.5 215.625 L 112.5 243.75 C 112.5 254.0625 120.9375 262.5 131.25 262.5 L 243.75 262.5 C 254.0625 262.5 262.5 254.0625 262.5 243.75 L 262.5 215.625 Z M 140.625 159.375 L 153.84375 172.59375 L 178.125 148.40625 L 178.125 225 L 196.875 225 L 196.875 148.40625 L 221.15625 172.59375 L 234.375 159.375 L 187.5 112.5 Z M 140.625 159.375 " fill-opacity="1" fill-rule="nonzero"/></g></svg>